<svg width="402" height="321" viewBox="0 0 402 321" fill="none" xmlns="http://www.w3.org/2000/svg">
<rect x="0.0175781" y="78.0977" width="325" height="360" rx="32" transform="rotate(-13.82 0.0175781 78.0977)" fill="#1B53D6"/>
<path d="M73.4068 133.161L70.5048 128.866L59.629 131.541L59.0508 136.692L56.1298 137.411L58.898 113.431L62.7822 112.476L76.3277 132.442L73.4068 133.161ZM61.4055 115.319L59.9263 128.865L68.9998 126.633L61.4055 115.319ZM78.7179 131.854L74.6896 115.479L77.2376 114.852L77.9887 117.369C78.3551 116.269 78.9508 115.386 79.776 114.722C80.6012 114.057 81.6042 113.58 82.785 113.289L83.624 113.083L84.2355 115.569L83.2723 115.806C82.2986 116.045 81.5107 116.415 80.9087 116.915C80.3015 117.393 79.8492 117.966 79.5517 118.632C79.2699 119.273 79.1171 119.992 79.0934 120.788C79.0905 121.58 79.1909 122.39 79.3947 123.219L81.3592 131.205L78.7179 131.854ZM91.355 111.379L95.7364 110.301L96.3097 112.632L91.9283 113.71L94.0151 122.193C94.2903 123.311 94.7116 124.086 95.2792 124.518C95.8416 124.929 96.7132 124.989 97.894 124.699L99.1059 124.4L99.6715 126.7L97.9003 127.136C96.0359 127.594 94.6056 127.496 93.6095 126.84C92.6134 126.184 91.8911 124.945 91.4426 123.122L89.2871 114.359L86.6147 115.017L86.0414 112.686L88.7138 112.029L87.5137 107.15L90.1549 106.5L91.355 111.379Z" fill="white"/>
</svg>
