<svg width="168" height="127" viewBox="0 0 168 127" fill="none" xmlns="http://www.w3.org/2000/svg">
<rect x="29.1729" y="-4" width="140" height="168" rx="24" transform="rotate(10 29.1729 -4)" fill="#1B53D6"/>
<path d="M51.3614 40.5295L50.6713 36.7036L42.3989 35.2449L40.4419 38.6041L38.2202 38.2124L47.3827 22.5982L50.3372 23.1192L53.5832 40.9213L51.3614 40.5295ZM48.5314 24.6529L43.4136 33.4986L50.3151 34.7155L48.5314 24.6529ZM55.4012 41.2419L57.5975 28.786L59.5356 29.1277L59.2884 31.0825C59.8732 30.4383 60.5493 30.0132 61.3167 29.8073C62.0841 29.6015 62.9169 29.5777 63.815 29.7361L64.4532 29.8486L64.1198 31.7395L63.3871 31.6103C62.6465 31.4797 61.994 31.4946 61.4296 31.655C60.8679 31.7997 60.3841 32.0556 59.9782 32.4227C59.5908 32.7768 59.2684 33.2236 59.0108 33.763C58.7689 34.3053 58.5924 34.8915 58.4813 35.5218L57.4103 41.5961L55.4012 41.2419ZM70.2737 31.0212L73.6063 31.6088L73.2937 33.3814L69.9611 32.7938L68.8234 39.2463C68.6733 40.0971 68.7277 40.7566 68.9863 41.2246C69.2477 41.6769 69.8275 41.9822 70.7257 42.1406L71.6475 42.3031L71.3391 44.0521L69.9918 43.8146C68.5737 43.5645 67.6222 43.0637 67.1374 42.3121C66.6525 41.5605 66.5324 40.4914 66.7769 39.1047L67.9521 32.4396L65.9195 32.0812L66.232 30.3085L68.2647 30.6669L68.919 26.9562L70.928 27.3104L70.2737 31.0212Z" fill="white"/>
</svg>
