<svg width="160" height="160" viewBox="0 0 160 160" fill="none" xmlns="http://www.w3.org/2000/svg">
<g filter="url(#filter0_d_2618_123918)">
<rect x="48" y="44" width="64" height="64" rx="16" fill="#1B53D6" shape-rendering="crispEdges"/>
<path fill-rule="evenodd" clip-rule="evenodd" d="M87.7819 66.9596C88.1724 67.3502 88.1724 67.9833 87.7819 68.3739L73.6398 82.516C73.4522 82.7035 73.1979 82.8089 72.9327 82.8089C72.6675 82.8089 72.4131 82.7035 72.2256 82.516L65.6259 75.9163C65.2354 75.5258 65.2354 74.8926 65.6259 74.5021C66.0164 74.1116 66.6496 74.1116 67.0401 74.5021L72.9327 80.3947L86.3677 66.9596C86.7582 66.5691 87.3914 66.5691 87.7819 66.9596Z" fill="white"/>
<path fill-rule="evenodd" clip-rule="evenodd" d="M94.4486 68.293C94.8391 68.6835 94.8391 69.3167 94.4486 69.7072L80.3064 83.8493C80.1189 84.0369 79.8645 84.1422 79.5993 84.1422C79.3341 84.1422 79.0798 84.0369 78.8922 83.8493L75.252 80.081C74.8614 79.6904 74.8614 79.0573 75.252 78.6667C75.6425 78.2762 76.2757 78.2762 76.6662 78.6667L79.5993 81.728L93.0344 68.293C93.4249 67.9025 94.058 67.9025 94.4486 68.293Z" fill="white"/>
</g>
<defs>
<filter id="filter0_d_2618_123918" x="0" y="0" width="160" height="160" filterUnits="userSpaceOnUse" color-interpolation-filters="sRGB">
<feFlood flood-opacity="0" result="BackgroundImageFix"/>
<feColorMatrix in="SourceAlpha" type="matrix" values="0 0 0 0 0 0 0 0 0 0 0 0 0 0 0 0 0 0 127 0" result="hardAlpha"/>
<feOffset dy="4"/>
<feGaussianBlur stdDeviation="24"/>
<feComposite in2="hardAlpha" operator="out"/>
<feColorMatrix type="matrix" values="0 0 0 0 0.105882 0 0 0 0 0.32549 0 0 0 0 0.839216 0 0 0 0.47 0"/>
<feBlend mode="normal" in2="BackgroundImageFix" result="effect1_dropShadow_2618_123918"/>
<feBlend mode="normal" in="SourceGraphic" in2="effect1_dropShadow_2618_123918" result="shape"/>
</filter>
</defs>
</svg>
