<svg width="167" height="114" viewBox="0 0 167 114" fill="none" xmlns="http://www.w3.org/2000/svg">
<g filter="url(#filter0_b_2559_124348)">
<rect x="0.907227" y="22.736" width="140" height="168" rx="24" transform="rotate(-9.28942 0.907227 22.736)" fill="#121212" fill-opacity="0.7"/>
<path d="M30.0778 58.6907C29.4146 58.7992 28.7332 58.8458 28.0336 58.8305C27.3497 58.8127 26.6911 58.7015 26.0578 58.4971C25.4377 58.2743 24.8811 57.9438 24.3879 57.5057C23.9105 57.0649 23.5558 56.4826 23.3239 55.7585L25.4556 55.4098C25.6648 55.7971 25.9335 56.1017 26.2617 56.3237C26.603 56.5273 26.9682 56.6783 27.3572 56.7768C27.762 56.8727 28.1748 56.9187 28.5957 56.9147C29.0165 56.9107 29.4165 56.8777 29.7954 56.8157C30.1428 56.7589 30.5324 56.6627 30.9642 56.5273C31.396 56.3918 31.7846 56.1904 32.13 55.9232C32.4911 55.6533 32.7658 55.3004 32.9538 54.8643C33.1551 54.4098 33.2015 53.851 33.0931 53.1878C32.9897 52.5562 32.7808 52.0716 32.4661 51.734C32.1673 51.3937 31.8037 51.1533 31.3754 51.0126C30.9629 50.8693 30.5067 50.8061 30.0068 50.823C29.5228 50.8373 29.036 50.8845 28.5465 50.9646L26.9359 51.228L26.6338 49.3806L27.6049 49.2217C28.0312 49.152 28.4247 49.0795 28.7853 49.0043C29.1433 48.9134 29.5278 48.737 29.939 48.4752C30.4055 48.1557 30.7539 47.7582 30.9842 47.2828C31.2119 46.7916 31.2871 46.2605 31.21 45.6895C31.117 45.121 30.946 44.6707 30.6972 44.3385C30.4483 44.0063 30.1491 43.7634 29.7998 43.6098C29.4504 43.4562 29.0732 43.3801 28.6681 43.3815C28.2604 43.3671 27.8513 43.3935 27.4408 43.4607C27.1092 43.5149 26.7682 43.6112 26.418 43.7496C26.0809 43.8695 25.7674 44.0343 25.4774 44.2439C25.2032 44.4508 24.9697 44.7079 24.7767 45.0151C24.5812 45.3065 24.4658 45.6415 24.4304 46.0202L22.3698 46.3572C22.3509 45.6469 22.4751 45.0187 22.7424 44.4723C23.0098 43.926 23.3702 43.4536 23.8239 43.0552C24.2933 42.6542 24.8243 42.3322 25.4169 42.0894C26.0252 41.844 26.6531 41.6683 27.3005 41.5624C28.011 41.4462 28.6872 41.4167 29.3288 41.4738C29.9836 41.5126 30.5763 41.667 31.1069 41.9369C31.6348 42.191 32.0782 42.5724 32.437 43.0812C32.8116 43.5874 33.0635 44.2352 33.1927 45.0247C33.2417 45.3247 33.2631 45.6536 33.2568 46.0113C33.2478 46.3532 33.1836 46.7042 33.0642 47.0642C32.9447 47.4242 32.7463 47.7971 32.469 48.1829C32.1916 48.5688 31.8026 48.9161 31.3019 49.225C32.3934 49.2572 33.2749 49.5913 33.9463 50.2273C34.6152 50.8474 35.0323 51.6628 35.1976 52.6734L35.2131 52.7681C35.3552 53.6366 35.3199 54.4124 35.1074 55.0957C34.9082 55.7606 34.5737 56.3422 34.1039 56.8406C33.6316 57.3231 33.0478 57.7186 32.3525 58.0268C31.6571 58.3351 30.8989 58.5564 30.0778 58.6907ZM36.6548 40.2269L42.5998 39.2545C43.8946 39.0427 45.065 39.062 46.1112 39.3125C47.1705 39.5445 48.0925 39.9773 48.8771 40.611C49.6591 41.2289 50.3011 42.0318 50.8031 43.0197C51.3026 43.9918 51.6544 45.1016 51.8584 46.349C52.0467 47.599 52.0589 48.7643 51.8952 49.8449C51.7315 50.9255 51.3787 51.8911 50.8369 52.7417C50.3083 53.574 49.5881 54.2754 48.6763 54.8461C47.7619 55.401 46.6494 55.7856 45.3388 56L39.3938 56.9724L36.6548 40.2269ZM39.0214 41.761L41.1483 54.7642L44.8906 54.1521C45.7433 54.0126 46.5358 53.7533 47.2682 53.3741C48.0138 52.9765 48.6087 52.4009 49.0529 51.6474C49.4626 50.9805 49.7213 50.2329 49.829 49.4047C49.9342 48.5606 49.908 47.657 49.7504 46.6938C49.5877 45.699 49.3246 44.8341 48.9612 44.0992C48.5978 43.3642 48.1328 42.7512 47.5661 42.2603C46.9994 41.7693 46.3258 41.4174 45.5452 41.2046C44.7646 40.9918 43.8769 40.9668 42.8821 41.1295L39.0214 41.761Z" fill="white"/>
</g>
<defs>
<filter id="filter0_b_2559_124348" x="-19.0928" y="-19.8631" width="205.283" height="228.396" filterUnits="userSpaceOnUse" color-interpolation-filters="sRGB">
<feFlood flood-opacity="0" result="BackgroundImageFix"/>
<feGaussianBlur in="BackgroundImageFix" stdDeviation="10"/>
<feComposite in2="SourceAlpha" operator="in" result="effect1_backgroundBlur_2559_124348"/>
<feBlend mode="normal" in="SourceGraphic" in2="effect1_backgroundBlur_2559_124348" result="shape"/>
</filter>
</defs>
</svg>
