<svg width="144" height="103" viewBox="0 0 144 103" fill="none" xmlns="http://www.w3.org/2000/svg">
<rect x="0.411621" y="9.10999" width="140" height="168" rx="24" transform="rotate(-3.42284 0.411621 9.10999)" fill="#F45E41"/>
<path d="M26.772 32.3135C25.7658 32.3737 24.9144 32.609 24.2176 33.0193C23.5368 33.4287 22.9835 33.9587 22.5576 34.6093C22.1476 35.2589 21.8632 35.9972 21.7043 36.8241C21.5444 37.6351 21.4908 38.4798 21.5433 39.3583C21.5997 40.3006 21.7645 41.1803 22.0378 41.9975C22.311 42.8146 22.6979 43.5208 23.1983 44.116C23.6978 44.6952 24.3179 45.147 25.0585 45.4713C25.7983 45.7797 26.6633 45.9043 27.6535 45.845C28.8514 45.7734 29.8427 45.4657 30.6277 44.9218C31.4126 44.378 31.9 43.6837 32.0899 42.8388L34.3659 42.7027C34.0826 44.1301 33.3753 45.3025 32.244 46.2196C31.1118 47.1208 29.6034 47.6278 27.7188 47.7405C26.4091 47.8189 25.2543 47.6715 24.2542 47.2986C23.2542 46.9256 22.4038 46.3754 21.7031 45.648C21.0184 44.9195 20.4848 44.0378 20.1023 43.0028C19.7198 41.9678 19.4909 40.8194 19.4154 39.5577C19.3409 38.3119 19.4318 37.1524 19.6882 36.0792C19.9446 35.006 20.3773 34.0665 20.9863 33.2607C21.5943 32.4389 22.3725 31.7833 23.321 31.2938C24.2685 30.7883 25.4051 30.4959 26.7307 30.4166C27.657 30.3612 28.4942 30.4233 29.2423 30.603C30.0063 30.7817 30.6723 31.0624 31.2402 31.4452C31.823 31.8111 32.3074 32.271 32.6931 32.8249C33.0779 33.3629 33.3707 33.9705 33.5715 34.6477L31.4633 34.7738C31.174 33.9576 30.6153 33.3259 29.7871 32.8785C28.9749 32.4302 27.9699 32.2419 26.772 32.3135ZM37.2447 46.9784L36.4896 34.353L38.4541 34.2355L38.6674 36.1943C39.0866 35.4319 39.6456 34.8615 40.3442 34.4831C41.0429 34.1047 41.8474 33.8883 42.7578 33.8338L43.4046 33.7951L43.5192 35.7117L42.7766 35.7561C42.0259 35.801 41.3947 35.967 40.8829 36.2541C40.3702 36.5252 39.959 36.8864 39.6494 37.3377C39.3548 37.772 39.1448 38.2815 39.0195 38.866C38.9102 39.4496 38.8746 40.0608 38.9128 40.6996L39.2811 46.8566L37.2447 46.9784ZM54.399 44.3415C54.1495 44.7251 53.8557 45.0392 53.5177 45.2838C53.1797 45.5285 52.8229 45.7261 52.4472 45.8768C52.0875 46.0266 51.7174 46.1368 51.337 46.2077C50.9725 46.2776 50.6066 46.3235 50.2392 46.3455C49.6483 46.3808 49.085 46.3424 48.5493 46.2302C48.0137 46.1179 47.5207 45.915 47.0703 45.6214C46.636 45.3268 46.2767 44.9476 45.9925 44.4837C45.7243 44.0189 45.572 43.483 45.5357 42.8761C45.4927 42.1574 45.5847 41.5508 45.8115 41.0564C46.0534 40.545 46.3889 40.1243 46.818 39.7941C47.247 39.4638 47.7457 39.2256 48.314 39.0795C48.8973 38.9163 49.5163 38.8152 50.1712 38.776L53.8845 38.5539C53.8205 37.4838 53.5383 36.6512 53.0379 36.056C52.5365 35.4449 51.7338 35.1563 50.6299 35.1902C49.9591 35.2304 49.3748 35.3775 48.8771 35.6317C48.3794 35.8859 48.05 36.2742 47.8889 36.7968L45.7088 36.9272C45.7862 36.3455 45.9807 35.845 46.2922 35.4256C46.6028 34.9903 46.982 34.631 47.4299 34.3478C47.8768 34.0486 48.368 33.8188 48.9034 33.6586C49.4388 33.4983 49.978 33.402 50.521 33.3695C51.4633 33.3131 52.2635 33.4256 52.9214 33.7068C53.5944 33.9711 54.1458 34.3468 54.5757 34.834C55.0046 35.3053 55.3204 35.8955 55.5231 36.6046C55.7258 37.3138 55.8539 38.1156 55.9074 39.01L56.3157 45.8378L54.6148 45.9395L54.399 44.3415ZM51.7583 40.3882C51.3749 40.4111 50.9282 40.4458 50.4181 40.4924C49.923 40.522 49.4467 40.5985 48.9893 40.7221C48.5318 40.8456 48.1684 41.0677 47.8991 41.3883C47.6457 41.708 47.5338 42.1155 47.5635 42.6106C47.5854 42.9779 47.6759 43.2851 47.835 43.532C47.994 43.7789 48.1985 43.9831 48.4486 44.1445C48.7147 44.3049 49.0098 44.4154 49.334 44.4762C49.6582 44.5369 49.988 44.5573 50.3234 44.5372C51.5213 44.4656 52.4464 44.1217 53.0988 43.5057C53.7662 42.8727 54.0744 41.9967 54.0235 40.8778L53.9863 40.2549L51.7583 40.3882ZM60.6924 45.576L60.0448 34.7474L57.9844 34.8706L57.877 33.0738L59.9373 32.9506L59.857 31.609C59.773 30.2035 60.0148 29.1552 60.5826 28.464C61.1503 27.7729 62.1529 27.3844 63.5903 27.2984L65.0278 27.2124L65.1352 29.0092L63.9134 29.0823C63.051 29.1339 62.4889 29.3839 62.2272 29.8323C61.9655 30.2807 61.859 30.9122 61.9077 31.7267L61.9736 32.8288L65.3516 32.6267L65.4591 34.4235L62.0811 34.6256L62.7288 45.4542L60.6924 45.576ZM70.6752 32.3083L74.0531 32.1063L74.1606 33.9031L70.7826 34.1051L71.1738 40.6454C71.2254 41.5079 71.4313 42.1367 71.7915 42.5319C72.1508 42.9111 72.7857 43.0735 73.696 43.0191L74.6304 42.9632L74.7364 44.736L73.3708 44.8177C71.9334 44.9037 70.8916 44.6374 70.2456 44.0189C69.5995 43.4003 69.2344 42.3883 69.1503 40.9828L68.7463 34.2269L66.6859 34.3501L66.5785 32.5533L68.6388 32.4301L68.4138 28.6688L70.4502 28.547L70.6752 32.3083Z" fill="white"/>
</svg>
