<svg width="392" height="279" viewBox="0 0 392 279" fill="none" xmlns="http://www.w3.org/2000/svg">
<rect x="72.8945" width="325" height="360" rx="32" transform="rotate(11.6823 72.8945 0)" fill="#F45E41"/>
<path d="M113.468 60.1087C112.152 59.8365 110.974 59.8435 109.935 60.1297C108.916 60.4201 108.02 60.9101 107.245 61.5995C106.492 62.2934 105.869 63.1449 105.377 64.1542C104.89 65.1426 104.527 66.2114 104.29 67.3604C104.035 68.593 103.941 69.7827 104.009 70.9295C104.077 72.0764 104.33 73.1198 104.767 74.0598C105.209 74.979 105.85 75.776 106.691 76.4509C107.536 77.1049 108.606 77.5658 109.901 77.8336C111.468 78.1576 112.851 78.1059 114.051 77.6786C115.25 77.2512 116.119 76.5268 116.657 75.5052L119.634 76.1208C118.773 77.8599 117.455 79.1232 115.68 79.9108C113.91 80.6775 111.792 80.806 109.327 80.2963C107.614 79.9421 106.178 79.3512 105.02 78.5236C103.863 77.696 102.959 76.6923 102.31 75.5124C101.682 74.3368 101.301 73.0164 101.168 71.5512C101.036 70.086 101.14 68.5282 101.481 66.8777C101.818 65.2482 102.338 63.7872 103.041 62.4948C103.744 61.2023 104.627 60.1433 105.691 59.3176C106.759 58.471 107.989 57.8974 109.38 57.5969C110.775 57.2754 112.34 57.294 114.074 57.6525C115.286 57.903 116.342 58.2739 117.242 58.7651C118.164 59.2606 118.924 59.8534 119.522 60.5434C120.145 61.2169 120.608 61.9772 120.912 62.8243C121.221 63.6505 121.387 64.5344 121.41 65.4759L118.652 64.9058C118.563 63.7546 118.064 62.7472 117.153 61.8836C116.263 61.0243 115.035 60.4327 113.468 60.1087ZM121.854 82.6251L125.269 66.1104L127.838 66.6417L127.432 69.2373C128.237 68.4016 129.154 67.8615 130.185 67.6172C131.216 67.3729 132.327 67.3738 133.518 67.62L134.364 67.795L133.846 70.302L132.874 70.1011C131.892 69.8981 131.022 69.8924 130.263 70.0841C129.509 70.2549 128.854 70.577 128.299 71.0504C127.769 71.5072 127.322 72.09 126.957 72.7989C126.614 73.5121 126.356 74.2866 126.183 75.1222L124.518 83.1759L121.854 82.6251ZM144.852 85.1911C144.398 85.5981 143.91 85.9004 143.39 86.0978C142.87 86.2953 142.342 86.4257 141.806 86.4892C141.291 86.557 140.776 86.5704 140.262 86.5294C139.769 86.4927 139.282 86.4247 138.801 86.3253C138.028 86.1655 137.316 85.9203 136.666 85.5897C136.015 85.2591 135.451 84.8266 134.974 84.2922C134.517 83.762 134.186 83.149 133.981 82.4532C133.798 81.7616 133.788 81.0189 133.952 80.2251C134.146 79.2849 134.475 78.5361 134.939 77.9784C135.428 77.4042 136.006 76.9792 136.673 76.7032C137.34 76.4272 138.065 76.2938 138.847 76.3031C139.655 76.2958 140.487 76.3807 141.344 76.5578L146.201 77.5621C146.49 76.1624 146.416 74.9925 145.979 74.0525C145.546 73.0916 144.613 72.4412 143.18 72.1013C142.303 71.9199 141.499 71.9063 140.77 72.0606C140.041 72.2148 139.482 72.6003 139.093 73.217L136.242 72.6273C136.544 71.9055 136.968 71.3288 137.514 70.8972C138.066 70.4447 138.679 70.114 139.353 69.905C140.033 69.6751 140.745 69.5501 141.49 69.5298C142.235 69.5095 142.962 69.5728 143.672 69.7197C144.905 69.9746 145.896 70.3973 146.645 70.9879C147.42 71.562 147.999 72.2372 148.383 73.0138C148.771 73.7694 148.973 74.6389 148.987 75.6222C149.002 76.6055 148.888 77.6821 148.646 78.852L146.8 87.7831L144.575 87.3231L144.852 85.1911ZM142.826 79.1845C142.325 79.0808 141.738 78.9703 141.065 78.8529C140.417 78.719 139.778 78.6521 139.146 78.6522C138.514 78.6523 137.969 78.8119 137.511 79.1311C137.074 79.4546 136.788 79.9402 136.654 80.5878C136.555 81.0683 136.565 81.4951 136.684 81.8683C136.803 82.2414 136.995 82.5753 137.261 82.8699C137.548 83.1688 137.889 83.4137 138.285 83.6045C138.682 83.7954 139.099 83.9362 139.538 84.0269C141.105 84.3509 142.415 84.2297 143.469 83.6633C144.548 83.0804 145.249 82.0599 145.572 80.6018L145.741 79.7871L142.826 79.1845ZM152.525 88.9668L155.453 74.8024L152.758 74.2452L153.244 71.8949L155.939 72.4522L156.302 70.6973C156.682 68.8588 157.358 67.5934 158.329 66.901C159.3 66.2086 160.725 66.0568 162.606 66.4456L164.486 66.8343L164 69.1846L162.402 68.8542C161.274 68.6209 160.463 68.7474 159.97 69.2337C159.478 69.7201 159.121 70.496 158.901 71.5614L158.603 73.0029L163.021 73.9165L162.536 76.2668L158.117 75.3532L155.188 89.5176L152.525 88.9668ZM169.985 75.3564L174.403 76.27L173.918 78.6203L169.499 77.7066L167.73 86.2617C167.497 87.3898 167.543 88.2708 167.87 88.9047C168.201 89.5177 168.961 89.9473 170.152 90.1935L171.374 90.4463L170.895 92.7652L169.109 92.3959C167.228 92.0071 165.98 91.3024 165.363 90.2817C164.746 89.261 164.628 87.8314 165.008 85.993L166.835 77.1559L164.14 76.5986L164.626 74.2484L167.321 74.8056L168.339 69.8857L171.002 70.4364L169.985 75.3564Z" fill="white"/>
</svg>
