<svg width="267" height="184" viewBox="0 0 267 184" fill="none" xmlns="http://www.w3.org/2000/svg">
<rect x="32.3389" width="236" height="304" rx="24" transform="rotate(6.10657 32.3389 0)" fill="#B5448E"/>
<path d="M69.1845 51.2424L75.1744 51.8832C76.4789 52.0228 77.6023 52.3522 78.5444 52.8713C79.5041 53.3763 80.2781 54.0384 80.8663 54.8576C81.4561 55.6609 81.862 56.6054 82.0837 57.6912C82.3072 58.761 82.3517 59.9244 82.2172 61.1812C82.0669 62.4363 81.7693 63.5631 81.3246 64.5614C80.8799 65.5598 80.2834 66.3971 79.5352 67.0733C78.8046 67.7354 77.924 68.2204 76.8934 68.5286C75.8645 68.8208 74.6898 68.8962 73.3693 68.755L67.3795 68.1141L69.1845 51.2424ZM71.059 53.3498L69.6574 66.451L73.4279 66.8544C74.2869 66.9463 75.1199 66.9067 75.9267 66.7355C76.7511 66.5502 77.4774 66.1532 78.1057 65.5446C78.6778 65.0104 79.1257 64.3584 79.4494 63.5884C79.7749 62.8026 79.9895 61.9244 80.0933 60.954C80.2006 59.9517 80.1766 59.048 80.0213 58.2429C79.8661 57.4379 79.5805 56.7234 79.1645 56.0996C78.7485 55.4758 78.1924 54.9577 77.4964 54.5453C76.8003 54.133 75.9511 53.8732 74.9488 53.7659L71.059 53.3498ZM87.0852 52.8437C87.467 52.8846 87.7796 53.0468 88.0228 53.3302C88.2677 53.5978 88.3689 53.9305 88.3263 54.3282C88.2838 54.7259 88.1137 55.0376 87.816 55.2632C87.5183 55.4888 87.1785 55.5812 86.7967 55.5404C86.399 55.4978 86.0865 55.3356 85.8591 55.0539C85.6318 54.7721 85.5395 54.4323 85.582 54.0346C85.6246 53.6369 85.7859 53.3323 86.0659 53.1209C86.3477 52.8936 86.6875 52.8012 87.0852 52.8437ZM84.2447 69.9185L85.5902 57.3422L87.6186 57.5592L86.2731 70.1355L84.2447 69.9185ZM100.874 71.601C100.683 73.3828 100.056 74.7317 98.9925 75.6478C97.929 76.5639 96.4348 76.9189 94.5097 76.713C93.8734 76.6449 93.2685 76.5078 92.6952 76.3016C92.1378 76.0972 91.6375 75.8103 91.1942 75.4411C90.7652 75.0894 90.4092 74.6571 90.1261 74.1441C89.8573 73.6487 89.6942 73.068 89.6367 72.4021L91.7367 72.6268C91.793 73.0029 91.9197 73.3222 92.1169 73.5847C92.3283 73.8648 92.5775 74.0926 92.8645 74.2681C93.1497 74.4595 93.464 74.6058 93.8072 74.7069C94.1504 74.8079 94.489 74.8764 94.8231 74.9121C95.4595 74.9802 96.0194 74.9355 96.5029 74.778C96.9847 74.6365 97.3875 74.406 97.7113 74.0867C98.0351 73.7673 98.287 73.3678 98.4671 72.8883C98.6613 72.4263 98.7891 71.909 98.8503 71.3362L99.0367 69.5942C98.5448 70.2817 97.9 70.7438 97.1023 70.9802C96.3063 71.2008 95.4947 71.2669 94.6674 71.1784C93.7145 71.0603 92.9051 70.8048 92.2392 70.4117C91.5749 70.0027 91.0507 69.488 90.6665 68.8676C90.2823 68.2472 90.0197 67.5433 89.8787 66.7558C89.7553 65.9542 89.7421 65.0999 89.8391 64.1931C89.9361 63.2863 90.1377 62.455 90.4438 61.6993C90.7516 60.9276 91.1669 60.2801 91.6895 59.7568C92.2138 59.2175 92.8439 58.8182 93.5796 58.559C94.3154 58.2998 95.1685 58.2221 96.139 58.326C96.8708 58.4043 97.5961 58.6186 98.3149 58.9691C99.0337 59.3195 99.5994 59.8226 100.012 60.4782L100.276 58.9134L102.209 59.1202L100.874 71.601ZM96.112 60.1575C95.4279 60.0843 94.8336 60.1495 94.3291 60.3529C93.8263 60.5405 93.4016 60.825 93.0551 61.2063C92.7244 61.5893 92.4569 62.0595 92.2524 62.6169C92.0656 63.1601 91.9381 63.7499 91.8701 64.3862C91.7952 65.0862 91.7924 65.7135 91.8618 66.268C91.9329 66.8067 92.0975 67.299 92.3555 67.7449C92.6135 68.1909 92.9676 68.5667 93.4176 68.8723C93.8694 69.162 94.4452 69.3443 95.1452 69.4192C95.9566 69.506 96.6452 69.3866 97.2111 69.0609C97.7769 68.7353 98.2496 68.3031 98.629 67.7644C98.8943 67.3905 99.0994 66.978 99.2442 66.5268C99.3907 66.0598 99.4886 65.5956 99.538 65.1342C99.5993 64.5615 99.5998 64.0305 99.5395 63.5413C99.4951 63.0538 99.3598 62.5888 99.1336 62.1462C98.8647 61.6508 98.4848 61.2159 97.9939 60.8416C97.5029 60.4672 96.8756 60.2392 96.112 60.1575ZM107.057 54.9804C107.439 55.0213 107.752 55.1835 107.995 55.4669C108.24 55.7345 108.341 56.0672 108.298 56.4649C108.256 56.8626 108.086 57.1743 107.788 57.3999C107.49 57.6255 107.15 57.7179 106.769 57.6771C106.371 57.6345 106.058 57.4723 105.831 57.1906C105.604 56.9088 105.511 56.569 105.554 56.1713C105.597 55.7736 105.758 55.469 106.038 55.2576C106.32 55.0303 106.659 54.9379 107.057 54.9804ZM104.217 72.0552L105.562 59.4789L107.591 59.6959L106.245 72.2722L104.217 72.0552ZM114.139 60.3965L118.005 60.8101L117.813 62.5999L113.947 62.1863L113.248 68.725C113.209 69.0909 113.188 69.4346 113.186 69.7562C113.201 70.0636 113.252 70.3426 113.338 70.5931C113.441 70.8295 113.596 71.0312 113.804 71.1982C114.029 71.351 114.339 71.4566 114.735 71.5151C115.101 71.5542 115.426 71.5246 115.71 71.4263C116.01 71.3296 116.265 71.204 116.475 71.0495L117.199 72.6235C116.748 72.9292 116.292 73.1299 115.832 73.2254C115.371 73.3209 114.87 73.3397 114.329 73.2819C113.645 73.2087 113.083 73.052 112.642 72.8117C112.202 72.5555 111.844 72.2195 111.567 71.8036C111.335 71.4088 111.198 70.9597 111.156 70.4563C111.113 69.9529 111.125 69.3909 111.191 68.7705L111.919 61.9693L109.867 61.7497L110.058 59.9599L112.11 60.1795L112.514 56.409L114.542 56.626L114.139 60.3965ZM127.533 72.9325C127.223 73.2694 126.882 73.5306 126.508 73.7159C126.134 73.9011 125.749 74.037 125.354 74.1234C124.974 74.2116 124.591 74.2591 124.204 74.2659C123.833 74.2745 123.465 74.2592 123.099 74.2201C122.51 74.1571 121.961 74.0259 121.451 73.8266C120.942 73.6272 120.489 73.3455 120.093 72.9814C119.714 72.6189 119.422 72.1854 119.219 71.6809C119.031 71.1781 118.97 70.6245 119.034 70.0199C119.111 69.304 119.302 68.721 119.608 68.271C119.931 67.8067 120.331 67.4473 120.809 67.1927C121.287 66.938 121.818 66.7857 122.403 66.7356C123.005 66.6713 123.632 66.674 124.285 66.7438L127.984 67.1396C128.098 66.0736 127.957 65.2058 127.562 64.536C127.169 63.8502 126.425 63.4327 125.331 63.2835C124.663 63.212 124.062 63.2604 123.529 63.4286C122.996 63.5969 122.607 63.9254 122.362 64.414L120.19 64.1817C120.363 63.6209 120.637 63.1595 121.014 62.7975C121.392 62.4196 121.826 62.1281 122.314 61.9229C122.805 61.7018 123.327 61.5565 123.882 61.4871C124.436 61.4177 124.984 61.412 125.525 61.4698C126.463 61.5702 127.234 61.8136 127.836 62.1999C128.456 62.5719 128.938 63.0338 129.281 63.5854C129.626 64.1211 129.84 64.7555 129.922 65.4884C130.005 66.2214 129.998 67.0333 129.903 67.9242L129.175 74.7254L127.481 74.5441L127.533 72.9325ZM125.583 68.5965C125.201 68.5556 124.755 68.5159 124.244 68.4773C123.751 68.4246 123.269 68.4212 122.797 68.4673C122.325 68.5134 121.93 68.6723 121.612 68.9439C121.309 69.2173 121.131 69.6005 121.078 70.0937C121.039 70.4596 121.077 70.7775 121.193 71.0474C121.309 71.3173 121.477 71.5525 121.697 71.753C121.933 71.9552 122.206 72.1131 122.515 72.2267C122.825 72.3403 123.147 72.415 123.481 72.4507C124.674 72.5784 125.644 72.3924 126.389 71.8929C127.152 71.3791 127.601 70.5663 127.736 69.4543L127.802 68.8339L125.583 68.5965ZM132.318 75.0616L134.123 58.1899L136.151 58.4069L134.346 75.2786L132.318 75.0616Z" fill="white"/>
</svg>
