<svg width="243" height="173" viewBox="0 0 243 173" fill="none" xmlns="http://www.w3.org/2000/svg">
<rect x="54.5" y="0.0280762" width="236" height="304" rx="24" transform="rotate(10.2069 54.5 0.0280762)" fill="#FFB838"/>
<path d="M86.6363 70.8433L84.5814 70.4733L87.5882 53.7739L89.6431 54.1439L86.6363 70.8433ZM90.2678 71.4972L93.2745 54.7977L95.2823 55.1592L92.2755 71.8587L90.2678 71.4972ZM95.4347 72.4275L98.4415 55.728L100.449 56.0895L97.4424 72.789L95.4347 72.4275ZM106.091 72.6637C107.225 72.8678 108.113 72.6781 108.754 72.0945C109.415 71.4981 109.855 70.5857 110.076 69.3575L111.322 62.4368L113.33 62.7983L112.067 69.8134C111.727 71.7031 111.018 73.0223 109.94 73.7712C108.878 74.5229 107.489 74.7442 105.773 74.4352C104.056 74.1261 102.831 73.4341 102.098 72.3592C101.381 71.2871 101.192 69.8063 101.533 67.9167L102.796 60.9015L104.803 61.263L103.557 68.1837C103.336 69.4119 103.431 70.4207 103.841 71.2099C104.255 71.9835 105.005 72.468 106.091 72.6637ZM120.595 65.8133C120.312 65.7623 120.016 65.7335 119.708 65.7268C119.419 65.7073 119.122 65.735 118.815 65.8099C118.528 65.8719 118.261 66.0026 118.013 66.202C117.785 66.3884 117.628 66.6692 117.545 67.0443C117.448 67.5796 117.573 68.0166 117.918 68.3552C118.279 68.6966 118.772 68.9884 119.394 69.2307C119.651 69.3418 119.931 69.4573 120.234 69.577C120.541 69.6809 120.838 69.7913 121.126 69.9082C121.432 70.0121 121.714 70.1197 121.97 70.2309C122.242 70.3449 122.467 70.4504 122.645 70.5474C124.071 71.292 124.644 72.4438 124.363 74.0027C124.212 74.7557 123.936 75.3401 123.536 75.7558C123.154 76.1586 122.703 76.4513 122.183 76.6339C121.678 76.8194 121.116 76.9134 120.498 76.9158C119.896 76.9212 119.303 76.8714 118.72 76.7665C118.154 76.6644 117.589 76.5058 117.026 76.2907C116.463 76.0755 115.962 75.7902 115.522 75.4346C115.1 75.0661 114.756 74.6302 114.489 74.1269C114.241 73.6107 114.13 73.0056 114.158 72.3114L116.189 72.6772C116.247 73.0778 116.39 73.4124 116.618 73.6811C116.846 73.9497 117.098 74.174 117.375 74.3538C117.667 74.5365 117.943 74.6756 118.202 74.771C118.477 74.8693 118.787 74.9496 119.134 75.012C119.386 75.0573 119.68 75.094 120.016 75.1221C120.353 75.1501 120.68 75.136 120.999 75.0796C121.321 75.0075 121.606 74.8718 121.853 74.6724C122.1 74.4731 122.262 74.1609 122.339 73.7357C122.424 73.2633 122.33 72.8806 122.058 72.5877C121.801 72.2977 121.415 72.0493 120.899 71.8427C120.536 71.6959 120.155 71.5542 119.757 71.4175C119.377 71.2678 118.99 71.1168 118.595 70.9644C118.218 70.799 117.851 70.6272 117.492 70.4489C117.137 70.2549 116.813 70.0257 116.519 69.7615C116.126 69.4144 115.837 68.9884 115.652 68.4836C115.466 67.9787 115.433 67.3956 115.552 66.7343C115.708 66.0471 115.968 65.5085 116.331 65.1187C116.696 64.713 117.125 64.4082 117.617 64.2041C118.14 64.0058 118.68 63.8997 119.235 63.8858C119.79 63.872 120.367 63.9189 120.965 64.0267C122.241 64.2563 123.207 64.7148 123.864 65.402C124.264 65.7992 124.55 66.2409 124.722 66.7272C124.895 67.2134 124.969 67.7063 124.944 68.2058L123.078 67.8698C123.05 67.3933 122.817 66.9694 122.38 66.5981C121.943 66.2267 121.348 65.9652 120.595 65.8133ZM131.381 66.0483L134.711 66.6479L134.392 68.4194L131.062 67.8198L129.901 74.2681C129.748 75.1184 129.799 75.7781 130.056 76.247C130.316 76.7002 130.895 77.0076 131.792 77.1693L132.714 77.3351L132.399 79.083L131.053 78.8406C129.635 78.5854 128.686 78.0812 128.204 77.3278C127.721 76.5744 127.605 75.5049 127.855 74.1192L129.054 67.4583L127.023 67.0926L127.342 65.321L129.373 65.6868L130.041 61.9784L132.048 62.3399L131.381 66.0483ZM134.74 79.5045L136.981 67.0567L138.918 67.4054L138.664 69.3593C139.251 68.7172 139.929 68.2946 140.697 68.0915C141.465 67.8884 142.298 67.8676 143.195 68.0292L143.833 68.1441L143.493 70.0337L142.761 69.9018C142.021 69.7686 141.368 69.7812 140.803 69.9395C140.241 70.0822 139.756 70.3363 139.349 70.7019C138.96 71.0546 138.636 71.5003 138.377 72.0388C138.133 72.5802 137.954 73.1658 137.841 73.7957L136.748 79.866L134.74 79.5045ZM152.033 80.9843C151.7 81.2982 151.34 81.5343 150.954 81.6923C150.568 81.8504 150.175 81.9584 149.774 82.0164C149.389 82.0771 149.004 82.0971 148.617 82.0763C148.246 82.0583 147.88 82.0167 147.518 81.9515C146.935 81.8466 146.397 81.6765 145.903 81.4412C145.409 81.206 144.977 80.8926 144.609 80.5011C144.256 80.1124 143.996 79.6592 143.829 79.1415C143.678 78.6265 143.657 78.0699 143.764 77.4715C143.892 76.7629 144.124 76.1951 144.461 75.768C144.817 75.3281 145.242 74.9982 145.737 74.7784C146.232 74.5586 146.772 74.4446 147.359 74.4364C147.964 74.4154 148.59 74.463 149.235 74.5792L152.897 75.2384C153.087 74.1834 153.008 73.3077 152.662 72.6113C152.319 71.8992 151.607 71.4296 150.526 71.2025C149.865 71.0834 149.262 71.0887 148.719 71.2185C148.175 71.3482 147.764 71.648 147.484 72.1179L145.334 71.7309C145.547 71.1838 145.854 70.7432 146.255 70.4091C146.66 70.0592 147.113 69.7994 147.615 69.6297C148.12 69.4442 148.651 69.3367 149.209 69.3071C149.767 69.2776 150.314 69.311 150.849 69.4074C151.779 69.5746 152.53 69.8725 153.103 70.3008C153.695 70.7162 154.142 71.2113 154.445 71.7861C154.751 72.3452 154.918 72.9932 154.948 73.7301C154.978 74.4671 154.914 75.2765 154.755 76.1583L153.543 82.89L151.866 82.5881L152.033 80.9843ZM150.398 76.5199C150.02 76.4519 149.578 76.3804 149.071 76.3054C148.583 76.2175 148.102 76.1797 147.628 76.1919C147.155 76.2042 146.749 76.3344 146.412 76.5826C146.09 76.8335 145.885 77.2031 145.798 77.6913C145.732 78.0534 145.748 78.3733 145.844 78.6507C145.941 78.9282 146.091 79.1748 146.296 79.3905C146.517 79.6091 146.778 79.7861 147.079 79.9216C147.379 80.057 147.695 80.1545 148.026 80.214C149.207 80.4267 150.187 80.3105 150.966 79.8655C151.764 79.4077 152.27 78.629 152.484 77.5296L152.595 76.9154L150.398 76.5199ZM162.036 71.5679L165.367 72.1675L165.048 73.939L161.717 73.3394L160.556 79.7877C160.403 80.638 160.455 81.2977 160.712 81.7666C160.972 82.2198 161.55 82.5272 162.448 82.6889L163.369 82.8547L163.054 84.6026L161.708 84.3602C160.291 84.105 159.341 83.6008 158.859 82.8474C158.377 82.094 158.261 81.0245 158.51 79.6388L159.709 72.9779L157.678 72.6122L157.997 70.8406L160.028 71.2064L160.696 67.498L162.704 67.8595L162.036 71.5679ZM169.615 68.226C169.993 68.294 170.293 68.4781 170.515 68.7783C170.741 69.0627 170.818 69.4017 170.747 69.7954C170.676 70.1891 170.484 70.4878 170.171 70.6915C169.858 70.8953 169.512 70.9631 169.135 70.8951C168.741 70.8242 168.441 70.6401 168.234 70.3428C168.028 70.0455 167.96 69.7 168.031 69.3063C168.101 68.9126 168.284 68.6204 168.579 68.4296C168.876 68.223 169.221 68.1551 169.615 68.226ZM165.561 85.0539L167.802 72.6061L169.81 72.9676L167.569 85.4154L165.561 85.0539ZM178.655 74.4139C179.647 74.5925 180.477 74.9045 181.145 75.3498C181.812 75.7952 182.339 76.3453 182.725 77C183.127 77.6576 183.375 78.4014 183.47 79.2313C183.583 80.0482 183.556 80.9212 183.388 81.8503C183.221 82.7793 182.941 83.6149 182.547 84.3568C182.172 85.0859 181.681 85.6885 181.075 86.1647C180.488 86.6279 179.796 86.9504 178.999 87.1321C178.202 87.3137 177.308 87.3153 176.316 87.1366C175.324 86.958 174.486 86.6446 173.802 86.1964C173.135 85.7511 172.599 85.2075 172.194 84.5656C171.808 83.9108 171.558 83.1749 171.445 82.358C171.351 81.5281 171.387 80.6487 171.555 79.7196C171.722 78.7905 171.993 77.9615 172.368 77.2324C172.762 76.4904 173.254 75.8799 173.844 75.401C174.45 74.9248 175.159 74.5973 175.972 74.4185C176.784 74.2396 177.679 74.2381 178.655 74.4139ZM176.635 85.3651C177.312 85.487 177.916 85.4738 178.446 85.3255C178.993 85.1801 179.46 84.931 179.849 84.5783C180.256 84.2126 180.58 83.767 180.821 83.2414C181.078 82.7186 181.264 82.1344 181.381 81.4888C181.494 80.8589 181.522 80.2542 181.463 79.6747C181.424 79.0823 181.275 78.5517 181.018 78.0827C180.78 77.6008 180.43 77.1964 179.969 76.8695C179.523 76.5454 178.962 76.3224 178.285 76.2005C177.608 76.0786 177.004 76.0918 176.473 76.2401C175.942 76.3884 175.473 76.6454 175.066 77.011C174.678 77.3637 174.353 77.8093 174.094 78.3478C173.853 78.8735 173.676 79.4512 173.562 80.0811C173.446 80.7267 173.409 81.3378 173.452 81.9145C173.51 82.494 173.658 83.0247 173.897 83.5065C174.154 83.9755 174.505 84.372 174.951 84.6961C175.396 85.0202 175.958 85.2432 176.635 85.3651ZM184.956 88.5461L187.197 76.0982L189.134 76.447L188.888 78.3536C189.156 78.044 189.461 77.7902 189.806 77.5921C190.166 77.3969 190.543 77.2452 190.936 77.1372C191.33 77.0292 191.73 76.9713 192.138 76.9634C192.562 76.9584 192.963 76.9899 193.34 77.058C194.238 77.2196 194.967 77.5053 195.527 77.9151C196.09 78.3091 196.506 78.7985 196.775 79.3834C197.046 79.9525 197.197 80.6055 197.227 81.3425C197.259 82.0637 197.204 82.8258 197.059 83.6289L195.821 90.5024L193.814 90.1409L194.953 83.8107C195.058 83.228 195.12 82.6619 195.137 82.1124C195.171 81.5656 195.114 81.0677 194.967 80.6186C194.839 80.1566 194.601 79.7642 194.253 79.4413C193.904 79.1185 193.399 78.8975 192.738 78.7785C192.09 78.678 191.487 78.732 190.929 78.9404C190.387 79.1517 189.929 79.4351 189.556 79.7907C189.101 80.2451 188.753 80.7759 188.514 81.3831C188.277 81.9746 188.102 82.5852 187.989 83.2151L186.964 88.9075L184.956 88.5461Z" fill="#121212"/>
</svg>
