<svg width="109" height="32" viewBox="0 0 109 32" fill="none" xmlns="http://www.w3.org/2000/svg">
<path d="M41.6725 0L53.2172 32H43.5789L42.0254 26.56H31.681L30.0922 32H20.3125L32.2811 0H41.6725ZM33.6934 19.4489H40.0483L37.0475 8.78222L33.6934 19.4489Z" fill="white"/>
<path d="M67.9749 0C76.3776 0 80.5789 4.37331 80.5789 11.4844C80.6753 13.3924 80.1978 15.2852 79.2089 16.9155C78.2199 18.5457 76.7656 19.8376 75.036 20.6222L82.097 31.9644H71.5054L66.6335 22.7555H63.1029V32H54.1705V0H67.9749ZM63.3498 15.3244H67.1276C70.0226 15.3244 71.5054 14.0444 71.5054 11.4844C71.5054 8.92442 69.9873 7.92887 67.1276 7.92887H63.3498V15.3244Z" fill="white"/>
<path d="M109 0V7.78667H100.068V32H90.9591V7.82221H81.956V0H109Z" fill="white"/>
<path d="M17.6792 25.5432V32H0.343359V25.6853C0.343359 23.3882 1.25654 21.1852 2.88208 19.5609C4.50763 17.9366 6.71233 17.024 9.0112 17.024C11.3101 17.024 13.5148 17.9366 15.1403 19.5609C16.7659 21.1852 17.6792 23.3882 17.6792 25.6853V25.5432Z" fill="white"/>
<path d="M8.99705 0C15.6581 0 18.0209 4.20976 18.0209 8.16353C18.0209 13.1129 14.491 16.2987 8.99705 16.2987C7.77297 16.3589 6.54911 16.1762 5.39606 15.7613C4.24301 15.3463 3.18365 14.7072 2.27912 13.8809C1.53594 13.1346 0.951249 12.246 0.55994 11.2685C0.168632 10.2909 -0.0212099 9.24458 0.00187964 8.192C0.00187964 3.21423 3.44618 0 8.99705 0Z" fill="white"/>
</svg>
