<svg width="20" height="20" viewBox="0 0 20 20" fill="none" xmlns="http://www.w3.org/2000/svg">
<path fill-rule="evenodd" clip-rule="evenodd" d="M0 7C0 5.89543 0.89543 5 2 5H18C19.1046 5 20 5.89543 20 7V9C20 10.1046 19.1046 11 18 11H2C0.89543 11 0 10.1046 0 9V7ZM18 7H2V9H18V7Z" fill="#1E1E1F"/>
<path fill-rule="evenodd" clip-rule="evenodd" d="M10 5C10.5523 5 11 5.44772 11 6V19C11 19.5523 10.5523 20 10 20C9.44771 20 9 19.5523 9 19V6C9 5.44772 9.44771 5 10 5Z" fill="#1E1E1F"/>
<path fill-rule="evenodd" clip-rule="evenodd" d="M3 9C3.55228 9 4 9.44772 4 10V17C4 17.2652 4.10536 17.5196 4.29289 17.7071C4.48043 17.8946 4.73478 18 5 18H15C15.2652 18 15.5196 17.8946 15.7071 17.7071C15.8946 17.5196 16 17.2652 16 17V10C16 9.44772 16.4477 9 17 9C17.5523 9 18 9.44772 18 10V17C18 17.7957 17.6839 18.5587 17.1213 19.1213C16.5587 19.6839 15.7957 20 15 20H5C4.20435 20 3.44129 19.6839 2.87868 19.1213C2.31607 18.5587 2 17.7957 2 17V10C2 9.44772 2.44772 9 3 9Z" fill="#1E1E1F"/>
<path fill-rule="evenodd" clip-rule="evenodd" d="M7.46944 3.01213C6.80934 2.27868 6.12408 1.98928 5.51742 1.99985L5.5 2C5.10218 2 4.72064 2.15804 4.43934 2.43934C4.15804 2.72065 4 3.10218 4 3.5C4 3.89783 4.15804 4.27936 4.43934 4.56066C4.72064 4.84197 5.10218 5 5.5 5C6.05228 5 6.5 5.44772 6.5 6C6.5 6.55229 6.05228 7 5.5 7C4.57174 7 3.6815 6.63125 3.02513 5.97488C2.36875 5.3185 2 4.42826 2 3.5C2 2.57174 2.36875 1.68151 3.02513 1.02513C3.67943 0.370826 4.56612 0.00233612 5.4912 1.28474e-05C6.81053 -0.0200801 8.01276 0.626125 8.95603 1.6742C9.34969 2.1116 9.69866 2.61781 10 3.17657C10.3013 2.61781 10.6503 2.1116 11.044 1.6742C11.9872 0.626125 13.1895 -0.0200801 14.5088 1.28474e-05C15.4339 0.00233606 16.3206 0.370826 16.9749 1.02513C17.6313 1.68151 18 2.57174 18 3.5C18 4.42826 17.6313 5.3185 16.9749 5.97488C16.3185 6.63125 15.4283 7 14.5 7C13.9477 7 13.5 6.55229 13.5 6C13.5 5.44772 13.9477 5 14.5 5C14.8978 5 15.2794 4.84197 15.5607 4.56066C15.842 4.27936 16 3.89783 16 3.5C16 3.10218 15.842 2.72065 15.5607 2.43934C15.2794 2.15804 14.8978 2 14.5 2L14.4826 1.99985C13.8759 1.98928 13.1907 2.27868 12.5306 3.01213C11.8654 3.75123 11.305 4.8626 10.9718 6.23583C10.863 6.68426 10.4614 7 10 7C9.53856 7 9.13703 6.68426 9.0282 6.23583C8.69496 4.8626 8.13463 3.75123 7.46944 3.01213Z" fill="#1E1E1F"/>
</svg>
