<?xml version="1.0" standalone="no"?>
<!DOCTYPE svg PUBLIC "-//W3C//DTD SVG 20010904//EN"
 "http://www.w3.org/TR/2001/REC-SVG-20010904/DTD/svg10.dtd">
<svg version="1.0" xmlns="http://www.w3.org/2000/svg"
 width="574.000000pt" height="729.000000pt" viewBox="0 0 574.000000 729.000000"
 preserveAspectRatio="xMidYMid meet">

<g transform="translate(0.000000,729.000000) scale(0.100000,-0.100000)"
fill="#000000" stroke="none">
<path d="M10 6941 l0 -350 35 -12 c19 -7 35 -17 35 -21 0 -4 9 -8 19 -8 11 0
21 -3 23 -7 4 -11 67 -43 84 -43 8 0 14 -4 14 -10 0 -5 11 -10 25 -10 14 0 25
-4 25 -10 0 -5 11 -12 25 -16 14 -3 25 -10 25 -15 0 -5 11 -9 25 -9 14 0 25
-4 25 -9 0 -5 20 -17 45 -28 25 -10 45 -21 45 -25 0 -5 11 -8 25 -8 14 0 25
-3 25 -7 0 -11 58 -43 76 -43 8 0 14 -4 14 -10 0 -5 7 -10 15 -10 8 0 15 -4
15 -10 0 -5 11 -12 25 -16 14 -3 25 -10 25 -15 0 -5 9 -9 20 -9 11 0 20 -4 20
-9 0 -5 11 -12 25 -15 14 -4 25 -11 25 -16 0 -6 7 -10 15 -10 8 0 15 -3 15 -7
0 -11 58 -43 76 -43 8 0 14 -4 14 -10 0 -5 5 -10 11 -10 6 0 17 -6 24 -12 33
-30 45 -38 55 -38 5 0 10 -4 10 -10 0 -5 9 -10 20 -10 11 0 20 -4 20 -8 0 -5
16 -17 35 -28 19 -10 35 -22 35 -26 0 -5 5 -8 11 -8 6 0 17 -6 24 -12 33 -30
45 -38 55 -38 5 0 10 -4 10 -9 0 -5 10 -13 23 -17 12 -4 29 -15 38 -25 9 -11
20 -19 23 -19 4 0 14 -6 21 -12 30 -27 44 -38 50 -38 3 0 18 -11 33 -25 15
-14 31 -25 35 -25 5 0 24 -16 43 -35 18 -19 36 -35 39 -35 7 0 24 -14 60 -47
13 -13 27 -23 30 -23 3 0 17 -11 31 -25 14 -14 31 -25 39 -25 8 0 15 -5 15
-11 0 -11 25 -39 35 -39 4 0 26 -20 51 -45 24 -25 47 -45 51 -45 15 0 70 -55
77 -78 4 -13 15 -22 27 -22 10 0 19 -4 19 -10 0 -11 29 -47 83 -102 20 -21 37
-41 37 -46 0 -4 11 -19 25 -34 14 -15 25 -32 25 -38 0 -5 5 -10 10 -10 6 0 10
-9 10 -20 0 -11 4 -20 10 -20 5 0 12 -11 16 -25 3 -14 10 -25 15 -25 5 0 9
-36 9 -80 0 -47 -4 -80 -10 -80 -5 0 -10 -7 -10 -15 0 -8 -7 -15 -15 -15 -8 0
-15 -4 -15 -10 0 -5 -16 -12 -35 -16 -19 -3 -35 -10 -35 -15 0 -11 -257 -12
-262 -1 -4 9 -129 42 -162 42 -14 0 -26 4 -26 9 0 5 -12 11 -27 14 -120 25
-143 31 -143 39 0 4 -18 8 -40 8 -22 0 -40 4 -40 9 0 5 -19 11 -42 14 -24 3
-80 11 -125 18 -73 11 -86 11 -130 -6 -26 -10 -50 -21 -53 -24 -3 -3 -14 -11
-25 -17 -14 -8 -21 -23 -23 -53 -2 -22 -7 -41 -13 -41 -5 0 -9 -9 -9 -20 0
-11 5 -20 10 -20 6 0 10 -18 10 -40 0 -22 4 -40 9 -40 5 0 12 -19 16 -41 8
-45 51 -99 79 -99 9 0 16 -4 16 -10 0 -5 8 -10 19 -10 10 0 35 -7 54 -15 20
-8 50 -15 67 -15 16 0 30 -4 30 -10 0 -5 16 -10 35 -10 19 0 35 -4 35 -10 0
-5 27 -12 60 -16 33 -4 60 -11 60 -15 0 -5 16 -9 35 -9 19 0 35 -4 35 -10 0
-5 14 -10 30 -10 17 0 47 -7 67 -15 19 -8 44 -15 54 -15 11 0 19 -4 19 -10 0
-5 16 -10 35 -10 19 0 35 -4 35 -10 0 -5 11 -10 24 -10 14 0 31 -7 40 -15 8
-8 24 -15 35 -15 12 0 21 -4 21 -10 0 -5 11 -10 25 -10 14 0 25 -4 25 -10 0
-5 16 -12 35 -16 19 -3 35 -10 35 -15 0 -5 11 -9 25 -9 14 0 25 -4 25 -9 0 -5
16 -12 35 -15 19 -4 35 -11 35 -16 0 -6 9 -10 20 -10 11 0 20 -4 20 -10 0 -5
11 -10 25 -10 14 0 25 -4 25 -9 0 -5 11 -12 25 -15 14 -4 25 -11 25 -16 0 -6
11 -10 25 -10 14 0 25 -4 25 -10 0 -5 6 -10 14 -10 17 0 80 -32 84 -42 2 -5
15 -8 28 -8 13 0 24 -4 24 -9 0 -5 20 -17 45 -28 25 -10 45 -21 45 -25 0 -5
11 -8 24 -8 14 0 31 -7 40 -15 8 -8 22 -15 30 -15 9 0 16 -4 16 -10 0 -5 11
-10 25 -10 14 0 25 -4 25 -10 0 -5 5 -10 11 -10 6 0 17 -7 25 -15 9 -8 26 -15
40 -15 13 0 24 -4 24 -10 0 -5 9 -10 20 -10 11 0 23 -7 26 -15 4 -8 17 -15 30
-15 13 0 24 -4 24 -10 0 -5 9 -10 20 -10 11 0 20 -4 20 -9 0 -5 11 -12 25 -15
14 -4 25 -11 25 -16 0 -6 11 -10 25 -10 14 0 25 -4 25 -10 0 -5 9 -10 21 -10
11 0 27 -7 35 -15 9 -8 24 -15 34 -15 10 0 22 -4 25 -10 3 -5 17 -10 31 -10
13 0 24 -4 24 -10 0 -5 8 -10 18 -10 9 0 26 -7 36 -15 11 -8 28 -15 38 -15 10
0 18 -4 18 -10 0 -5 11 -10 25 -10 14 0 25 -4 25 -10 0 -5 10 -10 23 -10 13 0
32 -7 43 -15 10 -8 27 -15 37 -15 9 0 17 -4 17 -10 0 -5 15 -10 33 -10 17 0
41 -7 51 -15 11 -8 30 -15 43 -15 13 0 23 -4 23 -10 0 -5 20 -10 45 -10 25 0
45 -4 45 -9 0 -11 76 -31 143 -38 26 -3 47 -9 47 -13 0 -4 19 -10 43 -13 83
-9 197 -32 197 -39 0 -5 38 -8 84 -8 54 0 86 -4 88 -11 5 -15 818 -15 827 0 3
5 49 12 101 14 100 5 209 23 225 38 5 5 37 9 72 9 35 0 63 4 63 10 0 6 24 10
54 10 47 0 54 3 60 23 3 12 6 883 6 1935 l0 1912 -2865 0 -2865 0 0 -349z"/>
<path d="M10 2720 l0 -2710 2865 0 2865 0 0 1639 c0 901 -3 1659 -6 1684 l-7
46 -35 -14 c-19 -8 -43 -15 -53 -15 -11 0 -19 -4 -19 -10 0 -5 -13 -10 -29
-10 -16 0 -42 -5 -58 -11 -15 -6 -86 -12 -157 -13 -92 -1 -131 -5 -134 -14 -3
-9 -40 -12 -133 -12 -79 0 -129 -4 -129 -10 0 -6 -92 -10 -255 -10 -163 0
-255 4 -255 10 0 6 -45 10 -115 10 -70 0 -115 -4 -115 -10 0 -5 -13 -10 -30
-10 -16 0 -30 5 -30 10 0 6 -13 10 -29 10 -16 0 -31 3 -33 8 -5 12 -78 42
-103 42 -14 0 -25 5 -25 10 0 6 -13 10 -29 10 -16 0 -45 7 -64 15 -20 8 -55
15 -77 15 -22 0 -40 5 -40 10 0 6 -16 10 -35 10 -19 0 -35 5 -35 10 0 6 -15
10 -33 10 -18 0 -42 7 -53 15 -10 8 -29 15 -41 15 -13 0 -23 5 -23 10 0 6 -16
10 -35 10 -19 0 -35 4 -35 10 0 5 -11 12 -25 16 -14 3 -25 10 -25 15 0 5 -13
9 -30 9 -16 0 -30 4 -30 8 0 4 -22 16 -50 27 -27 11 -50 23 -50 27 0 4 -11 8
-25 8 -14 0 -25 5 -25 10 0 6 -8 10 -17 10 -10 0 -27 7 -37 15 -11 8 -28 15
-38 15 -10 0 -18 5 -18 10 0 6 -11 10 -25 10 -14 0 -25 4 -25 9 0 5 -11 12
-25 15 -14 4 -25 11 -25 16 0 6 -11 10 -25 10 -14 0 -25 4 -25 8 0 4 -23 16
-50 27 -27 11 -50 23 -50 27 0 4 -6 8 -14 8 -18 0 -76 32 -76 43 0 4 -11 7
-25 7 -14 0 -25 5 -25 10 0 6 -11 10 -25 10 -14 0 -25 4 -25 10 0 5 -11 12
-25 16 -14 3 -25 10 -25 15 0 5 -11 9 -25 9 -14 0 -25 4 -25 8 0 5 -20 17 -45
28 -25 10 -45 22 -45 26 0 4 -11 8 -25 8 -14 0 -25 4 -25 10 0 5 -11 12 -25
16 -14 3 -25 10 -25 15 0 5 -13 9 -29 9 -16 0 -31 3 -33 8 -4 10 -67 42 -84
42 -8 0 -14 5 -14 10 0 6 -11 10 -25 10 -14 0 -25 4 -25 9 0 10 -78 41 -103
41 -9 0 -17 5 -17 10 0 6 -8 10 -17 10 -10 0 -27 7 -37 15 -11 8 -30 15 -43
15 -13 0 -23 5 -23 10 0 6 -16 10 -35 10 -19 0 -35 4 -35 10 0 5 -16 12 -35
16 -19 3 -35 10 -35 15 0 5 -16 9 -35 9 -19 0 -35 4 -35 9 0 5 -24 11 -52 14
-29 3 -66 7 -83 10 -16 2 -22 2 -12 0 10 -3 21 -11 24 -19 3 -8 13 -14 23 -14
10 0 34 -19 53 -42 49 -58 36 -64 -108 -49 -139 14 -255 14 -291 1 -34 -13
-64 -47 -64 -72 0 -10 7 -35 15 -55 8 -19 15 -44 15 -54 0 -11 5 -19 10 -19 6
0 10 -6 10 -13 0 -7 11 -24 25 -39 14 -15 25 -36 25 -48 0 -11 3 -20 8 -20 4
0 16 -16 26 -35 11 -19 23 -35 28 -35 4 0 8 -5 8 -11 0 -6 6 -17 13 -24 26
-30 37 -44 37 -50 0 -3 21 -28 48 -55 26 -27 53 -55 59 -62 7 -7 18 -19 25
-26 186 -186 298 -303 298 -312 0 -5 5 -10 10 -10 11 0 60 -45 60 -55 0 -3 20
-26 45 -52 25 -25 45 -49 45 -54 0 -4 11 -19 25 -33 14 -14 25 -28 25 -31 0
-4 6 -13 13 -20 27 -31 37 -44 37 -51 0 -4 11 -17 25 -30 14 -13 25 -30 25
-39 0 -8 5 -15 10 -15 6 0 10 -6 10 -13 0 -7 11 -24 25 -39 14 -15 25 -36 25
-48 0 -11 4 -20 10 -20 5 0 12 -11 16 -25 3 -14 10 -25 15 -25 5 0 9 -11 9
-25 0 -14 5 -25 10 -25 6 0 10 -8 10 -17 0 -10 7 -27 15 -37 8 -11 15 -35 15
-53 0 -18 5 -33 10 -33 6 0 10 -30 10 -70 0 -40 -4 -70 -10 -70 -5 0 -10 -6
-10 -14 0 -23 -34 -76 -52 -82 -10 -3 -18 -10 -18 -15 0 -15 -70 -10 -86 5 -8
8 -14 17 -14 21 0 3 -16 21 -35 39 -19 19 -35 41 -35 50 0 9 -4 16 -8 16 -5 0
-17 16 -28 35 -10 19 -22 35 -25 35 -4 0 -10 11 -13 25 -4 14 -11 25 -16 25
-6 0 -10 7 -10 15 0 8 -4 15 -10 15 -5 0 -10 7 -10 16 0 9 -11 27 -25 40 -14
13 -25 30 -25 39 0 8 -4 15 -10 15 -5 0 -10 7 -10 15 0 8 -4 15 -10 15 -5 0
-12 11 -16 25 -3 14 -10 25 -15 25 -5 0 -9 9 -9 20 0 11 -4 20 -10 20 -5 0
-10 7 -10 15 0 8 -4 15 -10 15 -5 0 -12 11 -16 25 -3 14 -9 25 -13 25 -4 0
-15 16 -24 35 -9 19 -21 35 -27 35 -5 0 -10 11 -10 25 0 14 -4 25 -10 25 -5 0
-10 9 -10 20 0 11 -4 20 -10 20 -5 0 -12 11 -16 25 -3 14 -10 25 -15 25 -5 0
-9 11 -9 25 0 14 -3 25 -8 25 -4 0 -16 16 -26 35 -11 19 -23 35 -28 35 -4 0
-8 11 -8 24 0 14 -7 31 -15 40 -8 8 -15 19 -15 25 0 6 -4 11 -10 11 -5 0 -10
11 -10 25 0 14 -4 25 -9 25 -5 0 -17 20 -28 45 -10 25 -21 45 -25 45 -5 0 -8
11 -8 25 0 14 -4 25 -10 25 -5 0 -12 11 -16 25 -3 14 -10 25 -15 25 -5 0 -9
11 -9 25 0 14 -4 25 -9 25 -5 0 -11 12 -14 28 -3 15 -15 37 -26 49 -12 12 -21
31 -21 43 0 11 -11 38 -25 60 -14 22 -25 49 -25 60 0 11 -3 20 -7 20 -11 0
-43 58 -43 76 0 8 -4 14 -10 14 -5 0 -10 11 -10 25 0 14 -4 25 -10 25 -5 0
-12 11 -16 25 -3 14 -10 25 -15 25 -5 0 -9 9 -9 20 0 11 -4 20 -9 20 -5 0 -12
11 -15 25 -4 14 -11 25 -16 25 -6 0 -10 7 -10 15 0 8 -4 15 -10 15 -5 0 -10 9
-10 20 0 11 -4 20 -9 20 -5 0 -12 11 -15 25 -4 14 -11 25 -16 25 -6 0 -10 7
-10 15 0 8 -4 15 -10 15 -5 0 -10 9 -10 19 0 11 -4 22 -9 26 -6 3 -13 26 -17
50 -5 35 -10 45 -26 45 -22 0 -63 38 -72 67 -4 11 -20 35 -36 52 -17 17 -30
33 -30 36 0 3 -5 11 -10 18 -44 52 -60 73 -60 80 0 4 -7 7 -15 7 -8 0 -15 9
-15 20 0 11 -4 20 -10 20 -5 0 -10 7 -10 15 0 8 -7 15 -15 15 -8 0 -15 5 -15
11 0 6 -20 31 -45 56 -25 24 -45 47 -45 49 0 10 -31 42 -248 260 -123 123
-227 224 -232 224 -4 0 -35 27 -69 60 -34 33 -64 60 -66 60 -3 0 -5 -1219 -5
-2710z m2410 1070 c0 -5 11 -10 25 -10 14 0 25 -4 25 -9 0 -5 16 -12 35 -15
19 -4 35 -11 35 -16 0 -6 11 -10 25 -10 14 0 25 -4 25 -10 0 -5 9 -10 20 -10
11 0 20 -4 20 -10 0 -5 11 -12 25 -16 14 -3 25 -10 25 -15 0 -5 10 -9 21 -9
12 0 29 -8 38 -19 9 -10 26 -21 39 -25 12 -4 22 -12 22 -17 0 -5 11 -9 25 -9
14 0 25 -5 25 -11 0 -14 30 -38 48 -39 18 0 46 -29 37 -38 -4 -4 -10 -1 -12 6
-3 6 -18 12 -34 12 -17 0 -40 9 -52 20 -12 12 -32 23 -44 26 -13 4 -23 10 -23
15 0 5 -9 9 -20 9 -11 0 -20 4 -20 9 0 5 -11 12 -25 15 -14 4 -25 11 -25 16 0
6 -11 10 -25 10 -14 0 -25 5 -25 10 0 6 -9 10 -20 10 -11 0 -20 4 -20 10 0 5
-11 12 -25 16 -14 3 -25 10 -25 15 0 5 -11 9 -25 9 -14 0 -25 3 -25 8 0 10
-58 42 -76 42 -8 0 -14 5 -14 10 0 6 -7 10 -15 10 -8 0 -15 5 -15 10 0 6 11
10 25 10 14 0 25 -4 25 -10z m570 -310 c0 -5 -4 -10 -10 -10 -5 0 -10 5 -10
10 0 6 5 10 10 10 6 0 10 -4 10 -10z m520 -70 c0 -5 13 -10 29 -10 16 0 36 -7
45 -15 8 -8 25 -16 38 -16 19 -1 18 -3 -7 -8 -35 -8 -75 -2 -75 10 0 5 -7 9
-15 9 -8 0 -15 5 -15 10 0 6 -13 10 -30 10 -16 0 -30 5 -30 10 0 6 14 10 30
10 17 0 30 -4 30 -10z"/>
</g>
</svg>
