<svg width="119" height="54" viewBox="0 0 119 54" fill="none" xmlns="http://www.w3.org/2000/svg">
<rect x="14.9907" y="0.74707" width="106" height="130" rx="16" transform="rotate(13.6035 14.9907 0.74707)" fill="#7FDD06"/>
<path d="M26.7626 25.3068L30.1781 26.1333C30.9219 26.3133 31.5465 26.5893 32.0519 26.9613C32.5685 27.3263 32.9657 27.7682 33.2436 28.2867C33.5236 28.7962 33.6864 29.3734 33.732 30.0182C33.7798 30.6539 33.717 31.3301 33.5436 32.0468C33.3611 32.7612 33.1033 33.3902 32.7701 33.9338C32.4369 34.4773 32.0282 34.9162 31.544 35.2504C31.0711 35.5776 30.5249 35.7912 29.9054 35.8909C29.2881 35.9816 28.603 35.9358 27.85 35.7536L24.4346 34.9271L26.7626 25.3068ZM27.6863 26.6683L25.8786 34.1386L28.0285 34.6589C28.5184 34.7774 29.0031 34.8179 29.4828 34.7803C29.9737 34.7359 30.424 34.5616 30.8337 34.2574C31.2052 33.992 31.5138 33.649 31.7597 33.2283C32.0077 32.7986 32.1987 32.3071 32.3326 31.7537C32.4709 31.1822 32.5258 30.6577 32.4973 30.1803C32.4688 29.7029 32.3579 29.268 32.1648 28.8755C31.9717 28.4831 31.6896 28.1411 31.3184 27.8497C30.9472 27.5582 30.4758 27.3433 29.9043 27.205L27.6863 26.6683ZM36.9936 27.5953C37.2113 27.648 37.3797 27.7656 37.4988 27.9481C37.6201 28.1214 37.6533 28.3215 37.5984 28.5483C37.5435 28.7751 37.4214 28.9424 37.2321 29.0502C37.0427 29.1581 36.8392 29.1856 36.6215 29.133C36.3947 29.0781 36.2263 28.9605 36.1163 28.7802C36.0062 28.6 35.9787 28.3964 36.0336 28.1697C36.0884 27.9429 36.2049 27.779 36.383 27.678C36.5632 27.568 36.7668 27.5405 36.9936 27.5953ZM34.0512 37.2543L35.7865 30.0832L36.9432 30.3631L35.2078 37.5341L34.0512 37.2543ZM43.5405 39.4929C43.2946 40.509 42.8293 41.2414 42.1445 41.6903C41.4597 42.1391 40.5685 42.2307 39.4708 41.9651C39.108 41.8773 38.7686 41.752 38.4527 41.5891C38.1459 41.4284 37.8784 41.2245 37.6501 40.9772C37.4288 40.7411 37.2558 40.464 37.1311 40.1458C37.0134 39.8388 36.9632 39.4906 36.9806 39.1011L38.1781 39.3908C38.182 39.6126 38.231 39.807 38.3251 39.9738C38.426 40.1518 38.5528 40.3025 38.7054 40.4259C38.8558 40.5583 39.0264 40.6668 39.2172 40.7514C39.408 40.836 39.5986 40.9013 39.7891 40.9474C40.152 41.0352 40.4792 41.052 40.7708 40.9977C41.0603 40.9525 41.3108 40.8499 41.5223 40.6899C41.7339 40.5298 41.91 40.3179 42.0506 40.0543C42.1981 39.8019 42.3114 39.5124 42.3904 39.1858L42.6308 38.1925C42.294 38.5527 41.8859 38.7709 41.4066 38.8469C40.9294 38.9139 40.455 38.8903 39.9833 38.7762C39.4412 38.6354 38.9925 38.426 38.6373 38.148C38.2842 37.8609 38.0202 37.5233 37.8452 37.1353C37.6703 36.7472 37.5719 36.3201 37.5503 35.854C37.54 35.3809 37.5973 34.8859 37.7225 34.3688C37.8476 33.8517 38.0274 33.3863 38.262 32.9725C38.4988 32.5497 38.7882 32.2068 39.1303 31.9439C39.4746 31.6719 39.8694 31.489 40.3146 31.395C40.7599 31.3011 41.2592 31.3211 41.8125 31.455C42.2298 31.556 42.633 31.7352 43.022 31.9926C43.4111 32.25 43.6999 32.584 43.8887 32.9945L44.1604 32.1096L45.2626 32.3763L43.5405 39.4929ZM41.6575 32.5122C41.2674 32.4178 40.9188 32.4103 40.6115 32.4896C40.3064 32.5598 40.0392 32.692 39.8097 32.8861C39.5894 33.0825 39.3989 33.3341 39.2382 33.6409C39.0888 33.9408 38.9702 34.2722 38.8824 34.6351C38.7858 35.0342 38.7365 35.3968 38.7344 35.7228C38.7345 36.0397 38.7922 36.3369 38.9075 36.6145C39.0228 36.8921 39.1989 37.1364 39.436 37.3474C39.6752 37.5493 39.9944 37.6986 40.3935 37.7951C40.8562 37.9071 41.2635 37.8904 41.6155 37.7452C41.9676 37.5999 42.2738 37.3859 42.5343 37.1033C42.7162 36.9072 42.8662 36.6842 42.9843 36.4343C43.1045 36.1753 43.1965 35.9143 43.2602 35.6512C43.3392 35.3247 43.3799 35.0176 43.3823 34.7301C43.3937 34.4448 43.3508 34.1656 43.2537 33.8924C43.1359 33.5854 42.9493 33.305 42.6938 33.0511C42.4384 32.7972 42.093 32.6176 41.6575 32.5122ZM48.3817 30.3511C48.5994 30.4038 48.7678 30.5214 48.8869 30.7039C49.0082 30.8773 49.0414 31.0773 48.9865 31.3041C48.9316 31.5309 48.8095 31.6982 48.6202 31.806C48.4308 31.9139 48.2273 31.9414 48.0096 31.8888C47.7828 31.8339 47.6144 31.7163 47.5044 31.536C47.3943 31.3558 47.3668 31.1522 47.4217 30.9255C47.4765 30.6987 47.593 30.5348 47.7711 30.4339C47.9513 30.3238 48.1549 30.2963 48.3817 30.3511ZM45.4393 40.0101L47.1746 32.839L48.3313 33.1189L46.5959 40.29L45.4393 40.0101ZM52.0651 34.0225L54.2694 34.5559L54.0225 35.5765L51.8181 35.043L50.9159 38.7714C50.8654 38.9801 50.8273 39.1773 50.8015 39.3631C50.787 39.542 50.795 39.7072 50.8256 39.8587C50.8675 40.0032 50.942 40.1317 51.0492 40.2441C51.1678 40.3496 51.3393 40.4343 51.5639 40.4983C51.7725 40.5488 51.9628 40.5564 52.1345 40.5211C52.3154 40.4881 52.4723 40.4348 52.6053 40.3614L52.9046 41.3269C52.6205 41.4693 52.3415 41.5507 52.0678 41.5709C51.794 41.591 51.5029 41.5638 51.1945 41.4892C50.8044 41.3948 50.491 41.2613 50.2543 41.0888C50.0197 40.9072 49.8381 40.6856 49.7093 40.424C49.6056 40.178 49.5606 39.9078 49.5742 39.6135C49.5878 39.3191 49.6374 38.995 49.723 38.6412L50.6615 34.7631L49.4913 34.4799L49.7382 33.4594L50.9085 33.7426L51.4287 31.5926L52.5853 31.8725L52.0651 34.0225ZM58.8574 42.292C58.6527 42.4634 58.4352 42.5884 58.2049 42.6671C57.9746 42.7458 57.7418 42.7951 57.5065 42.815C57.2803 42.837 57.055 42.8354 56.8307 42.8099C56.6155 42.7866 56.4036 42.7497 56.1949 42.6992C55.8593 42.618 55.5517 42.5004 55.2721 42.3463C54.9924 42.1922 54.7521 41.9948 54.5511 41.7541C54.3592 41.5156 54.2235 41.2427 54.1442 40.9354C54.074 40.6304 54.0806 40.3055 54.164 39.9607C54.2628 39.5525 54.4177 39.2299 54.6287 38.9929C54.851 38.749 55.11 38.5716 55.4057 38.4607C55.7014 38.3498 56.0202 38.3021 56.3622 38.3177C56.7154 38.3263 57.0779 38.3756 57.4499 38.4656L59.559 38.976C59.7061 38.3682 59.6909 37.8556 59.5134 37.4382C59.3382 37.0116 58.9398 36.7136 58.3182 36.544C57.9372 36.4518 57.5862 36.434 57.2652 36.4908C56.9442 36.5475 56.6941 36.7079 56.515 36.9718L55.2767 36.6722C55.4193 36.361 55.6132 36.115 55.8586 35.9344C56.1062 35.7446 56.3791 35.609 56.6773 35.5275C56.9777 35.4369 57.2908 35.3927 57.6168 35.3948C57.9428 35.3968 58.26 35.4352 58.5685 35.5098C59.1037 35.6393 59.5308 35.8387 59.8497 36.1079C60.18 36.3703 60.4233 36.6741 60.5799 37.0192C60.7386 37.3553 60.8139 37.7385 60.8059 38.1686C60.7978 38.5988 60.7323 39.0679 60.6094 39.5759L59.6709 43.454L58.7048 43.2202L58.8574 42.292ZM58.0597 39.6359C57.842 39.5832 57.5869 39.5263 57.2944 39.4651C57.0132 39.3971 56.7345 39.3584 56.4582 39.3492C56.182 39.34 55.9414 39.4018 55.7364 39.5346C55.5405 39.6696 55.4085 39.8778 55.3404 40.159C55.2899 40.3676 55.2879 40.5544 55.3345 40.7193C55.381 40.8842 55.4602 41.033 55.5721 41.1657C55.6931 41.3006 55.8389 41.4127 56.0093 41.502C56.1798 41.5913 56.3602 41.6589 56.5507 41.705C57.2311 41.8697 57.8058 41.8359 58.2749 41.6037C58.7553 41.3647 59.0769 40.9287 59.2396 40.2959L59.3252 39.9421L58.0597 39.6359ZM61.4628 43.8876L63.7909 34.2673L64.9475 34.5471L62.6194 44.1675L61.4628 43.8876Z" fill="black"/>
</svg>
